HIERARCHY
ROOT Hips
{
	OFFSET 0.000000 0.000000 0.000000
	CHANNELS 6 Xposition Yposition Zposition Yrotation Xrotation Zrotation
	JOINT Chest
	{
		OFFSET 0.000000 -0.009281 11.569106
		CHANNELS 3 Yrotation Xrotation Zrotation
		JOINT Chest2
		{
			OFFSET -0.000000 0.016865 9.269641
			CHANNELS 3 Yrotation Xrotation Zrotation
			JOINT Chest3
			{
				OFFSET -0.000000 0.000001 8.374491
				CHANNELS 3 Yrotation Xrotation Zrotation
				JOINT Chest4
				{
					OFFSET -0.000000 0.000001 8.374493
					CHANNELS 3 Yrotation Xrotation Zrotation
					JOINT Neck
					{
						OFFSET -0.000000 0.000002 12.152554
						CHANNELS 3 Yrotation Xrotation Zrotation
						JOINT Head
						{
							OFFSET -0.000000 0.040101 7.802319
							CHANNELS 3 Yrotation Xrotation Zrotation
							End Site
							{
								OFFSET -0.000000 0.020947 14.853096
							}
						}
					}
					JOINT RightCollar
					{
						OFFSET 2.894404 0.000001 6.791374
						CHANNELS 3 Yrotation Xrotation Zrotation
						JOINT RightShoulder
						{
							OFFSET 13.574684 0.000001 0.000000
							CHANNELS 3 Yrotation Xrotation Zrotation
							JOINT RightElbow
							{
								OFFSET 23.923903 0.000002 0.000000
								CHANNELS 3 Yrotation Xrotation Zrotation
								JOINT RightWrist
								{
									OFFSET 19.846718 0.012767 0.000000
									CHANNELS 3 Yrotation Xrotation Zrotation
									End Site
									{
										OFFSET 14.973145 0.000001 0.000000
									}
								}
							}
						}
					}
					JOINT LeftCollar
					{
						OFFSET -2.894404 0.000001 6.791374
						CHANNELS 3 Yrotation Xrotation Zrotation
						JOINT LeftShoulder
						{
							OFFSET -13.574684 -0.000001 0.000000
							CHANNELS 3 Yrotation Xrotation Zrotation
							JOINT LeftElbow
							{
								OFFSET -23.923903 -0.000002 0.000000
								CHANNELS 3 Yrotation Xrotation Zrotation
								JOINT LeftWrist
								{
									OFFSET -19.846718 0.012763 0.000000
									CHANNELS 3 Yrotation Xrotation Zrotation
									End Site
									{
										OFFSET -14.973145 -0.000001 0.000000
									}
								}
							}
						}
					}
				}
			}
		}
	}
	JOINT RightHip
	{
		OFFSET 9.469263 0.004643 0.045487
		CHANNELS 3 Yrotation Xrotation Zrotation
		JOINT RightKnee
		{
			OFFSET 0.000000 0.002661 -40.478676
			CHANNELS 3 Yrotation Xrotation Zrotation
			JOINT RightAnkle
			{
				OFFSET 0.000000 0.049106 -35.224068
				CHANNELS 3 Yrotation Xrotation Zrotation
				JOINT RightToe
				{
					OFFSET -0.000001 12.539529 -6.151390
					CHANNELS 3 Yrotation Xrotation Zrotation
					End Site
					{
						OFFSET -0.000001 5.044994 -1.291870
					}
				}
			}
		}
	}
	JOINT LeftHip
	{
		OFFSET -9.469263 0.004641 0.045487
		CHANNELS 3 Yrotation Xrotation Zrotation
		JOINT LeftKnee
		{
			OFFSET 0.000000 0.002661 -40.478676
			CHANNELS 3 Yrotation Xrotation Zrotation
			JOINT LeftAnkle
			{
				OFFSET 0.000000 0.049106 -35.224068
				CHANNELS 3 Yrotation Xrotation Zrotation
				JOINT LeftToe
				{
					OFFSET -0.000001 12.539529 -6.151390
					CHANNELS 3 Yrotation Xrotation Zrotation
					End Site
					{
						OFFSET -0.000001 5.044994 -1.291870
					}
				}
			}
		}
	}
}
MOTION
Frames: 8
Frame Time: 0.016667
11.562817 8.551582 83.294952 -6.634373 -0.303821 -101.084341 2.617344 -2.696654 2.583777 1.180158 -1.181388 1.152008 1.180158 -1.181388 1.152009 0.887318 -0.883824 0.866262 -2.429201 -12.973406 9.506401 -0.730533 11.829100 17.043345 3.427695 2.085738 -0.916829 74.218659 -2.061122 35.437368 62.492713 -5.204541 50.642574 20.129705 40.393626 -7.055415 -8.047091 1.973555 -14.287963 -73.782996 38.660862 -75.812955 -33.229219 36.040777 -48.898151 -11.661788 46.872860 7.188014 -2.454393 -9.221624 -5.676523 1.515125 -2.465700 -7.797203 0.005805 4.604401 2.629342 0.004353 -0.008848 0.002916 -1.487217 -9.168591 0.842205 0.796073 -1.093879 -0.213249 -5.486846 2.160603 -4.245850 -0.002510 -0.039396 0.002394 
11.560172 8.549418 83.294205 -6.651126 -0.305300 -101.088398 2.620234 -2.704617 2.592547 1.181340 -1.185037 1.156012 1.181340 -1.185037 1.156014 0.888218 -0.886551 0.869274 -2.418398 -12.934419 9.486709 -0.713112 11.901483 17.013829 3.421942 2.152027 -0.942179 73.828901 -2.048552 35.798654 61.330721 -4.558037 50.451018 21.509220 38.526959 -7.102350 -8.026715 2.105238 -14.290007 -73.023000 39.038643 -75.412590 -31.517259 36.724455 -46.956352 -15.667542 44.842524 5.595796 -2.457284 -9.233728 -5.669155 1.516881 -2.470169 -7.789318 0.005470 4.609040 2.623047 0.002075 -0.011606 0.002326 -1.489733 -9.181245 0.857603 0.797599 -1.100438 -0.231528 -5.485327 2.166905 -4.236056 -0.003895 -0.039562 0.003220 
11.555633 8.547973 83.293915 -6.670239 -0.306055 -101.098131 2.618987 -2.714507 2.607647 1.180671 -1.189496 1.162991 1.180671 -1.189496 1.162990 0.887739 -0.889883 0.874513 -2.404356 -12.887770 9.461289 -0.690912 11.988113 16.975452 3.411849 2.208258 -0.968769 73.421467 -2.122223 36.207687 60.123853 -3.843418 50.343477 23.025379 36.378438 -7.415514 -8.016237 2.249888 -14.296195 -72.217147 39.459581 -75.044176 -29.519538 37.233598 -44.754856 -19.517634 42.212963 4.304859 -2.461553 -9.246167 -5.673754 1.520878 -2.474684 -7.771630 0.000762 4.611231 2.622479 0.000891 -0.013000 0.001989 -1.491954 -9.192878 0.882043 0.798666 -1.112169 -0.241439 -5.485479 2.171480 -4.237156 -0.005278 -0.037292 0.003302 
11.549296 8.543603 83.294319 -6.694801 -0.304523 -101.112509 2.620600 -2.728376 2.622008 1.180352 -1.195709 1.169673 1.180351 -1.195709 1.169674 0.887525 -0.894531 0.879537 -2.394342 -12.837406 9.435540 -0.676010 12.082132 16.935138 3.416993 2.232871 -0.935908 73.017311 -2.088319 36.665552 58.833788 -3.225280 50.219710 24.681920 33.943168 -7.894300 -8.008784 2.420831 -14.267756 -71.241591 39.892666 -74.557812 -27.340050 37.518062 -42.417899 -23.199769 39.376228 3.255254 -2.463045 -9.261501 -5.687162 1.514402 -2.479306 -7.750347 -0.002080 4.610840 2.619737 0.001201 -0.013547 0.001374 -1.499364 -9.207740 0.897972 0.803117 -1.125667 -0.235371 -5.489172 2.173870 -4.236917 -0.005503 -0.033183 0.003848 
11.541792 8.536724 83.294525 -6.710033 -0.302689 -101.130998 2.626587 -2.740150 2.631718 1.182254 -1.200958 1.175431 1.182254 -1.200958 1.175430 0.888973 -0.898452 0.883867 -2.393089 -12.783872 9.414629 -0.675352 12.182674 16.900670 3.411760 2.298516 -0.931178 72.634889 -1.997134 37.130428 57.663018 -2.735537 50.011516 26.257158 31.487131 -8.776737 -7.972520 2.593166 -14.202153 -70.069743 40.302703 -73.898890 -25.154740 37.712968 -40.200335 -26.793008 36.341862 2.707134 -2.457859 -9.271147 -5.705365 1.497781 -2.472947 -7.716354 -0.001981 4.603888 2.630842 0.001587 -0.014889 0.001310 -1.501045 -9.212729 0.888249 0.804457 -1.140894 -0.219917 -5.492443 2.179055 -4.225194 -0.007180 -0.029687 0.003676 
11.532986 8.529716 83.293846 -6.711059 -0.304224 -101.154405 2.629841 -2.748903 2.642152 1.184059 -1.204711 1.181334 1.184058 -1.204711 1.181333 0.890344 -0.901252 0.888305 -2.392913 -12.724609 9.395594 -0.675291 12.293759 16.869818 3.410937 2.326631 -0.940585 72.188099 -1.910492 37.699536 56.453614 -2.332893 49.768529 27.747906 29.003336 -9.731086 -7.890161 2.722641 -14.123690 -68.784827 40.623329 -73.178326 -22.912802 37.876913 -38.246761 -30.218987 32.810958 2.831484 -2.447201 -9.271268 -5.725976 1.485822 -2.456392 -7.678457 -0.002854 4.591239 2.631061 -0.001549 -0.016478 0.000703 -1.499479 -9.207540 0.871903 0.808720 -1.149717 -0.197793 -5.494976 2.185517 -4.212738 -0.010094 -0.030101 0.003729 
11.523509 8.522890 83.293167 -6.703583 -0.303299 -101.181924 2.633358 -2.743622 2.648519 1.185555 -1.202260 1.184853 1.185554 -1.202260 1.184852 0.891468 -0.899404 0.890941 -2.388655 -12.674441 9.379343 -0.667535 12.387308 16.845127 3.403722 2.318451 -0.945730 71.700532 -1.868619 38.314383 55.018038 -2.048286 49.595137 29.292718 26.351654 -10.749895 -7.818313 2.777957 -14.051807 -67.632834 40.927907 -72.611031 -20.584133 37.711674 -36.512422 -33.095757 29.072973 3.641570 -2.442724 -9.263860 -5.740463 1.482024 -2.435201 -7.644394 -0.003579 4.575247 2.626194 -0.007022 -0.017932 -0.000123 -1.494653 -9.198039 0.866316 0.808475 -1.149803 -0.184943 -5.496758 2.186915 -4.220595 -0.012708 -0.030068 0.003851 
11.514965 8.515678 83.292732 -6.696591 -0.302802 -101.199402 2.631837 -2.723243 2.650248 1.184718 -1.193073 1.186259 1.184717 -1.193073 1.186259 0.890826 -0.892513 0.891979 -2.371245 -12.638649 9.359832 -0.638009 12.452980 16.818427 3.394145 2.337573 -0.953035 71.235799 -1.826678 38.864821 53.561162 -1.903715 49.401133 30.692077 23.793304 -11.776745 -7.794207 2.755979 -14.026103 -66.871131 41.414029 -72.359973 -18.551137 36.950828 -34.994023 -35.012755 25.599523 4.780161 -2.433087 -9.263776 -5.751467 1.475567 -2.404426 -7.613107 -0.002507 4.555655 2.598031 -0.013280 -0.018512 -0.000748 -1.494868 -9.191556 0.859806 0.816164 -1.143570 -0.174240 -5.500211 2.187904 -4.214695 -0.014762 -0.032221 0.003874 
